<svg xmlns="http://www.w3.org/2000/svg" xmlns:xlink="http://www.w3.org/1999/xlink" viewBox="0 0 1430 1430">

  <defs>
    <mask id="m" maskUnits="userSpaceOnUse">
      <circle r="600" cx="657" cy="737" fill="#FFF"/>
    </mask>

    <g id="g">
      <rect x="0" y="0" height="1430" width="1430" fill="#8d0f73"/>
      <path d="M354.77-109l-1.89-1.26c-2.46-1.62-3.38-2.28-2.92-2.06.11.05,0,0,0,0l16.67-25,991.19,660.8,1.89,1.26c2,1.34,2.78,1.86,2.37,1.66-.15-.08-.07,0-.08,0-5.56,8.33-11.11,16.67-16.91,24.85Z"
            transform="translate(67.34 137.42)" style="fill:#fff"/>
      <path d="M309.3-38.86l-1.89-1.26c-2.46-1.62-3.39-2.28-2.92-2.06.1,0,0,0,0,0q8.33-12.51,16.67-25l991.19,660.79,1.89,1.26c2,1.34,2.77,1.86,2.36,1.66-.15-.07-.06,0-.08,0-5.55,8.34-11.11,16.67-16.91,24.85Z"
            transform="translate(67.34 137.42)" style="fill:#fff"/>
      <path d="M534.09,1139.73V859.09l-86.37,204H398.36L312,859.09v280.64H220V670.89h99.83L423,915.88l103.75-245h99.27v468.84Z"
            transform="translate(67.34 137.42)" style="fill:#fff"/>
      <path d="M702.33,1139.73V670.89H851q49.35,0,86.37,18.49a180.38,180.38,0,0,1,62,50.19q25,31.7,37.58,74.28t12.62,90.8q0,53.49-14,96.74t-40.1,73.95a179.75,179.75,0,0,1-62.82,47.55q-36.74,16.83-81.6,16.84Zm253.5-235.08q0-31-7-56.46t-20.47-43.91a91.68,91.68,0,0,0-33.09-28.39Q875.63,766,851,766H794.31v278.66H851q25.24,0,44.87-10.57a94,94,0,0,0,32.81-29.38q13.17-18.83,20.19-44.24T955.83,904.65Z"
            transform="translate(67.34 137.42)" style="fill:#fff"/>
      <path d="M151.68,995.55H45.41V262c0-45.36-22-67.39-67.39-67.39H-67.34V88.36H355.15c114.05,0,175,60.91,175,173.66V512.15c0,112.75-60.91,173.66-175,173.66H151.68Zm203.47-416c45.36,0,68.69-22,68.69-67.39V262c0-45.36-23.33-67.39-68.69-67.39H151.68V579.54Z"
            transform="translate(67.34 137.42)" style="fill:#fff"/>
    </g>
  </defs>

  <use xlink:href="#g" mask="url(#m)"/>
</svg>
