<?xml version="1.0" encoding="utf-8"?>
<svg version="1.1" xmlns="http://www.w3.org/2000/svg" xmlns:xlink="http://www.w3.org/1999/xlink" x="0px" y="0px"
     viewBox="0 0 512 512" style="enable-background:new 0 0 512 512;" xml:space="preserve">
<g>
	<g>
		<path fill="#4D146E" class="st0" d="M164.71,86.94h89.39c70.27,0,118.06,23.42,118.06,92.25c0,66.44-47.32,97.03-116.15,97.03h-51.15V400.5
			h-40.15V86.94z M251.22,243.72c54.49,0,80.78-20.08,80.78-64.53c0-44.93-27.72-59.75-82.69-59.75h-44.45v124.28H251.22z"/>
	</g>
    <g>
		<path fill="#000" d="M31.62,377.54c0-29.12,4.16-43.26,4.16-69.47c0-14.56-9.15-29.95-35.78-30.78v-37.44c26.62-0.83,35.78-16.22,35.78-30.37
			c0-26.62-4.16-40.77-4.16-69.89c0-45.34,16.22-59.9,53.66-59.9h27.04v34.11h-7.49c-16.64,0-21.63,5.41-21.63,27.87
			c0,22.05,2.08,42.02,2.08,66.98c0,32.03-10.4,44.1-31.62,49.09v1.66c21.22,4.99,31.62,17.06,31.62,49.09
			c0,24.96-2.08,44.93-2.08,66.98c0,22.46,4.99,27.87,21.63,27.87h7.49v34.11H85.28C47.84,437.44,31.62,422.88,31.62,377.54z"/>
	</g>
    <g>
		<path fill="#000" d="M482.77,139.59c0,29.12-4.16,43.26-4.16,69.47c0,14.56,9.15,29.95,35.78,30.78v37.44c-26.62,0.83-35.78,16.22-35.78,30.37
			c0,26.62,4.16,40.77,4.16,69.89c0,45.34-16.22,59.9-53.66,59.9h-27.04v-34.11h7.49c16.64,0,21.63-5.41,21.63-27.87
			c0-22.05-2.08-42.02-2.08-66.98c0-32.03,10.4-44.1,31.62-49.09v-1.66c-21.22-4.99-31.62-17.06-31.62-49.09
			c0-24.96,2.08-44.93,2.08-66.98c0-22.46-4.99-27.87-21.63-27.87h-7.49V79.68h27.04C466.55,79.68,482.77,94.24,482.77,139.59z"/>
	</g>
    <polygon fill="#4D146E" points="192.08,114.28 191.68,248.6 308,246 348.93,183.45 332.44,135.19 292.22,112.67 	"/>
    <path fill="none" stroke="#FFFFFF" stroke-width="48" stroke-linecap="round" stroke-miterlimit="10"
          stroke-linejoin="round" d="M216,156.53c56.35,58.9,53.21,55.27,53.21,55.27L376,100"/>
</g>
</svg>
